<?xml version="1.0" encoding="utf-8"?>
<!-- Generator: Adobe Illustrator 24.2.3, SVG Export Plug-In . SVG Version: 6.00 Build 0)  -->
<svg version="1.1" id="Ebene_1" xmlns="http://www.w3.org/2000/svg" xmlns:xlink="http://www.w3.org/1999/xlink" x="0px" y="0px"
	 viewBox="0 0 500 500" style="enable-background:new 0 0 500 500;" xml:space="preserve">
<style type="text/css">
	.st0{fill:#566B8D;}
	.st1{fill:#FFFFFF;}
	.st2{fill:none;stroke:#FFFFFF;stroke-width:30;stroke-linecap:round;stroke-miterlimit:10;}
</style>
<g>
	<path class="st0" d="M411.8,53.7c19,0,34.5,15.5,34.5,34.5v323.6c0,19-15.5,34.5-34.5,34.5H88.2c-19,0-34.5-15.5-34.5-34.5V88.2
		c0-19,15.5-34.5,34.5-34.5L411.8,53.7 M411.8,36.7H88.2c-28.5,0-51.5,23.1-51.5,51.5v323.6c0,28.5,23.1,51.5,51.5,51.5h323.6
		c28.5,0,51.5-23.1,51.5-51.5V88.2C463.3,59.7,440.3,36.7,411.8,36.7L411.8,36.7z"/>
</g>
<g>
	<path class="st0" d="M232.5,108.3L80.6,371.4c-7.8,13.5,1.9,30.4,17.5,30.4h303.8c15.6,0,25.4-16.9,17.5-30.4L267.5,108.3
		C259.8,94.8,240.2,94.8,232.5,108.3z"/>
	<g>
		
			<ellipse transform="matrix(0.9239 -0.3827 0.3827 0.9239 -109.5199 121.241)" class="st1" cx="250" cy="335.9" rx="21.1" ry="21.1"/>
		<line class="st2" x1="250" y1="186.3" x2="250" y2="277"/>
	</g>
</g>
</svg>
