<?xml version="1.0" encoding="utf-8"?>
<!-- Generator: Adobe Illustrator 24.2.3, SVG Export Plug-In . SVG Version: 6.00 Build 0)  -->
<svg version="1.1" id="Ebene_1" xmlns="http://www.w3.org/2000/svg" xmlns:xlink="http://www.w3.org/1999/xlink" x="0px" y="0px"
	 viewBox="0 0 500 500" style="enable-background:new 0 0 500 500;" xml:space="preserve">
<style type="text/css">
	.st0{fill:#566B8D;}
	.st1{fill:#FFFFFF;}
</style>
<g>
	<g>
		<path class="st0" d="M411.8,53.7c19,0,34.5,15.5,34.5,34.5v323.6c0,19-15.5,34.5-34.5,34.5H88.2c-19,0-34.5-15.5-34.5-34.5V88.2
			c0-19,15.5-34.5,34.5-34.5H411.8 M411.8,36.7H88.2c-28.5,0-51.5,23.1-51.5,51.5v323.6c0,28.5,23.1,51.5,51.5,51.5h323.6
			c28.5,0,51.5-23.1,51.5-51.5V88.2C463.3,59.7,440.3,36.7,411.8,36.7L411.8,36.7z"/>
	</g>
	<g>
		<g>
			<g>
				<path class="st1" d="M101.6,335.3c-8.4,0-15.3-6.9-15.3-15.3V180c0-8.4,6.9-15.3,15.3-15.3h140c8.4,0,15.3,6.9,15.3,15.3v140
					c0,8.4-6.9,15.3-15.3,15.3H101.6z"/>
				<path class="st0" d="M241.5,171.7c4.6,0,8.3,3.7,8.3,8.3v140c0,4.6-3.7,8.3-8.3,8.3h-140c-4.6,0-8.3-3.7-8.3-8.3V180
					c0-4.6,3.7-8.3,8.3-8.3H241.5 M241.5,157.7h-140c-12.3,0-22.3,10-22.3,22.3v140c0,12.3,10,22.3,22.3,22.3h140
					c12.3,0,22.3-10,22.3-22.3V180C263.8,167.7,253.8,157.7,241.5,157.7L241.5,157.7z"/>
			</g>
			<g>
				<polygon class="st0" points="145.8,220.5 97.3,304.5 194.3,304.5 				"/>
				<polygon class="st0" points="205.2,246.7 164.7,304.5 245.7,304.5 				"/>
				<circle class="st0" cx="192.7" cy="208" r="12.5"/>
			</g>
		</g>
		<g>
			<g>
				<path class="st1" d="M153.6,350.1c-10.4,0-18.9-8.5-18.9-18.9V168.8c0-10.4,8.5-18.9,18.9-18.9H316c10.4,0,18.9,8.5,18.9,18.9
					v162.4c0,10.4-8.5,18.9-18.9,18.9H153.6z"/>
				<path class="st0" d="M316,156.9c6.5,0,11.9,5.3,11.9,11.9v162.4c0,6.5-5.3,11.9-11.9,11.9H153.6c-6.5,0-11.9-5.3-11.9-11.9
					V168.8c0-6.5,5.3-11.9,11.9-11.9H316 M316,142.9H153.6c-14.3,0-25.9,11.6-25.9,25.9v162.4c0,14.3,11.6,25.9,25.9,25.9H316
					c14.3,0,25.9-11.6,25.9-25.9V168.8C341.9,154.5,330.3,142.9,316,142.9L316,142.9z"/>
			</g>
			<g>
				<polygon class="st0" points="205,215.8 148.7,313.2 261.2,313.2 				"/>
				<polygon class="st0" points="273.9,246.1 226.8,313.2 320.9,313.2 				"/>
				<circle class="st0" cx="259.4" cy="201.3" r="14.5"/>
			</g>
		</g>
		<g>
			<g>
				<path class="st1" d="M212.8,363.9c-12.2,0-22.2-10-22.2-22.2V158.3c0-12.2,10-22.2,22.2-22.2h183.4c12.2,0,22.2,10,22.2,22.2
					v183.4c0,12.2-10,22.2-22.2,22.2H212.8z"/>
				<path class="st0" d="M396.2,143.1c8.4,0,15.2,6.8,15.2,15.2v183.4c0,8.4-6.8,15.2-15.2,15.2H212.8c-8.4,0-15.2-6.8-15.2-15.2
					V158.3c0-8.4,6.8-15.2,15.2-15.2H396.2 M396.2,129.1H212.8c-16.1,0-29.2,13.1-29.2,29.2v183.4c0,16.1,13.1,29.2,29.2,29.2h183.4
					c16.1,0,29.2-13.1,29.2-29.2V158.3C425.4,142.2,412.3,129.1,396.2,129.1L396.2,129.1z"/>
			</g>
			<g>
				<polygon class="st0" points="270.8,211.4 207.3,321.4 334.4,321.4 				"/>
				<polygon class="st0" points="348.6,245.7 295.5,321.4 401.8,321.4 				"/>
				<circle class="st0" cx="332.3" cy="195" r="16.4"/>
			</g>
		</g>
	</g>
</g>
</svg>
