<?xml version="1.0" encoding="utf-8"?>
<!-- Generator: Adobe Illustrator 24.2.3, SVG Export Plug-In . SVG Version: 6.00 Build 0)  -->
<svg version="1.1" id="Ebene_1" xmlns="http://www.w3.org/2000/svg" xmlns:xlink="http://www.w3.org/1999/xlink" x="0px" y="0px"
	 viewBox="0 0 500 500" style="enable-background:new 0 0 500 500;" xml:space="preserve">
<style type="text/css">
	.st0{fill:#566B8D;}
	.st1{fill:#FFFFFF;}
	.st2{fill:none;stroke:#566B8D;stroke-width:22;stroke-linecap:round;stroke-miterlimit:10;}
</style>
<g>
	<path class="st0" d="M411.8,53.7c19,0,34.5,15.5,34.5,34.5v323.6c0,19-15.5,34.5-34.5,34.5H88.2c-19,0-34.5-15.5-34.5-34.5V88.2
		c0-19,15.5-34.5,34.5-34.5L411.8,53.7 M411.8,36.7H88.2c-28.5,0-51.5,23.1-51.5,51.5v323.6c0,28.5,23.1,51.5,51.5,51.5h323.6
		c28.5,0,51.5-23.1,51.5-51.5V88.2C463.3,59.7,440.3,36.7,411.8,36.7L411.8,36.7z"/>
</g>
<g>
	<g>
		<path class="st1" d="M192.2,215.5c-7.6,0-14-6.3-14-14V85.9c0-7.6,6.3-14,14-14h115.6c7.6,0,14,6.3,14,14v115.6
			c0,7.6-6.3,14-14,14L192.2,215.5L192.2,215.5z"/>
		<path class="st0" d="M307.7,76.3c5.3,0,9.5,4.3,9.5,9.5v115.6c0,5.3-4.3,9.5-9.5,9.5H192.2c-5.3,0-9.5-4.3-9.5-9.5V85.9
			c0-5.3,4.3-9.5,9.5-9.5L307.7,76.3 M307.7,67.5H192.2c-10.2,0-18.4,8.3-18.4,18.4v115.6c0,10.2,8.3,18.4,18.4,18.4h115.6
			c10.2,0,18.4-8.3,18.4-18.4V85.9C326.2,75.8,317.9,67.5,307.7,67.5L307.7,67.5z"/>
	</g>
	<g>
		<polygon class="st0" points="228.7,119.4 188.7,188.7 268.8,188.7 		"/>
		<polygon class="st0" points="277.8,141 244.3,188.7 311.3,188.7 		"/>
		<circle class="st0" cx="267.5" cy="109.1" r="10.3"/>
	</g>
</g>
<g>
	<g>
		<g>
			<g>
				<line class="st2" x1="89.4" y1="346.5" x2="213.5" y2="346.5"/>
				<line class="st2" x1="89.4" y1="380.5" x2="213.5" y2="380.5"/>
				<line class="st2" x1="89.4" y1="414.5" x2="213.5" y2="414.5"/>
			</g>
			<g>
				<line class="st2" x1="116.4" y1="283.9" x2="145.9" y2="307.2"/>
				<line class="st2" x1="186.6" y1="248.5" x2="145.9" y2="307.2"/>
			</g>
		</g>
	</g>
	<g>
		<g>
			<g>
				<line class="st2" x1="284.5" y1="346.5" x2="408.6" y2="346.5"/>
				<line class="st2" x1="284.5" y1="380.5" x2="408.6" y2="380.5"/>
				<line class="st2" x1="284.5" y1="414.5" x2="408.6" y2="414.5"/>
			</g>
			<g>
				<line class="st2" x1="311.5" y1="283.9" x2="341" y2="307.2"/>
				<line class="st2" x1="381.7" y1="248.5" x2="341" y2="307.2"/>
			</g>
		</g>
	</g>
</g>
</svg>
