<?xml version="1.0" encoding="utf-8"?>
<!-- Generator: Adobe Illustrator 24.2.3, SVG Export Plug-In . SVG Version: 6.00 Build 0)  -->
<svg version="1.1" id="Ebene_1" xmlns="http://www.w3.org/2000/svg" xmlns:xlink="http://www.w3.org/1999/xlink" x="0px" y="0px"
	 viewBox="0 0 500 500" style="enable-background:new 0 0 500 500;" xml:space="preserve">
<style type="text/css">
	.st0{fill:#566B8D;}
	.st1{fill:none;stroke:#566B8D;stroke-width:14;stroke-linejoin:round;stroke-miterlimit:10;}
</style>
<g>
	<path class="st0" d="M411.8,53.7c19,0,34.5,15.5,34.5,34.5v323.6c0,19-15.5,34.5-34.5,34.5H88.2c-19,0-34.5-15.5-34.5-34.5V88.2
		c0-19,15.5-34.5,34.5-34.5L411.8,53.7 M411.8,36.7H88.2c-28.5,0-51.5,23.1-51.5,51.5v323.6c0,28.5,23.1,51.5,51.5,51.5h323.6
		c28.5,0,51.5-23.1,51.5-51.5V88.2C463.3,59.7,440.3,36.7,411.8,36.7L411.8,36.7z"/>
</g>
<g>
	<polygon class="st1" points="250,381.9 399.2,209.8 100.8,209.8 	"/>
	<polygon class="st1" points="250,381.9 312.7,209.8 187.3,209.8 	"/>
	<polygon class="st1" points="346.9,138.1 399.2,209.8 100.8,209.8 153.1,138.1 	"/>
	<polygon class="st1" points="290.7,138.1 312.7,209.8 187.3,209.8 209.3,138.1 	"/>
</g>
</svg>
