<?xml version="1.0" encoding="utf-8"?>
<!-- Generator: Adobe Illustrator 24.2.3, SVG Export Plug-In . SVG Version: 6.00 Build 0)  -->
<svg version="1.1" id="Ebene_1" xmlns="http://www.w3.org/2000/svg" xmlns:xlink="http://www.w3.org/1999/xlink" x="0px" y="0px"
	 viewBox="0 0 500 500" style="enable-background:new 0 0 500 500;" xml:space="preserve">
<style type="text/css">
	.st0{fill:#566B8D;}
</style>
<g>
	<path class="st0" d="M411.8,53.7c19,0,34.5,15.5,34.5,34.5v323.6c0,19-15.5,34.5-34.5,34.5H88.2c-19,0-34.5-15.5-34.5-34.5V88.2
		c0-19,15.5-34.5,34.5-34.5L411.8,53.7 M411.8,36.7H88.2c-28.5,0-51.5,23.1-51.5,51.5v323.6c0,28.5,23.1,51.5,51.5,51.5h323.6
		c28.5,0,51.5-23.1,51.5-51.5V88.2C463.3,59.7,440.3,36.7,411.8,36.7L411.8,36.7z"/>
</g>
<g>
	<g>
		<circle class="st0" cx="138.7" cy="199.2" r="35"/>
		<path class="st0" d="M68.1,332.5c0-47.4,31.6-85.8,70.5-85.8s70.5,38.4,70.5,85.8H68.1z"/>
	</g>
	<g>
		<circle class="st0" cx="361.3" cy="200.9" r="35"/>
		<path class="st0" d="M290.8,334.2c0-47.4,31.6-85.8,70.5-85.8s70.5,38.4,70.5,85.8H290.8z"/>
	</g>
	<g>
		<circle class="st0" cx="250" cy="192.8" r="40.8"/>
		<path class="st0" d="M167.8,348c0-55.2,36.8-100,82.2-100s82.2,44.8,82.2,100H167.8z"/>
	</g>
</g>
</svg>
