<?xml version="1.0" encoding="utf-8"?>
<!-- Generator: Adobe Illustrator 24.2.3, SVG Export Plug-In . SVG Version: 6.00 Build 0)  -->
<svg version="1.1" id="Ebene_1" xmlns="http://www.w3.org/2000/svg" xmlns:xlink="http://www.w3.org/1999/xlink" x="0px" y="0px"
	 viewBox="0 0 500 500" style="enable-background:new 0 0 500 500;" xml:space="preserve">
<style type="text/css">
	.st0{fill:#566B8D;}
	.st1{clip-path:url(#SVGID_2_);}
	.st2{fill:#566B8D;stroke:#566B8D;stroke-width:14;stroke-miterlimit:10;}
	.st3{fill:none;stroke:#566B8D;stroke-width:14;stroke-miterlimit:10;}
</style>
<g>
	<path class="st0" d="M411.8,53.7c19,0,34.5,15.5,34.5,34.5v323.6c0,19-15.5,34.5-34.5,34.5H88.2c-19,0-34.5-15.5-34.5-34.5V88.2
		c0-19,15.5-34.5,34.5-34.5L411.8,53.7 M411.8,36.7H88.2c-28.5,0-51.5,23.1-51.5,51.5v323.6c0,28.5,23.1,51.5,51.5,51.5h323.6
		c28.5,0,51.5-23.1,51.5-51.5V88.2C463.3,59.7,440.3,36.7,411.8,36.7L411.8,36.7z"/>
</g>
<g>
	<defs>
		<path id="SVGID_1_" d="M411.8,53.7c19,0,34.5,15.5,34.5,34.5v323.6c0,19-15.5,34.5-34.5,34.5H88.2c-19,0-34.5-15.5-34.5-34.5V88.2
			c0-19,15.5-34.5,34.5-34.5H411.8"/>
	</defs>
	<clipPath id="SVGID_2_">
		<use xlink:href="#SVGID_1_"  style="overflow:visible;"/>
	</clipPath>
	<g class="st1">
		<polygon class="st2" points="-109.5,340.1 -198.4,386.8 -181.4,287.8 -253.3,217.7 -153.9,203.3 -109.5,113.2 -65,203.3 
			34.3,217.7 -37.6,287.8 -20.6,386.8 		"/>
		<polygon class="st3" points="250,340.1 161.1,386.8 178.1,287.8 106.2,217.7 205.6,203.3 250,113.2 294.4,203.3 393.8,217.7 
			321.9,287.8 338.9,386.8 		"/>
		<polygon class="st3" points="609.5,340.1 520.6,386.8 537.6,287.8 465.7,217.7 565,203.3 609.5,113.2 653.9,203.3 753.3,217.7 
			681.4,287.8 698.4,386.8 		"/>
		<g>
			<polygon class="st0" points="185.6,285.4 121.2,222.6 210.2,209.7 243,143.2 243,335.8 170.4,374 			"/>
			<path class="st0" d="M236,173.2v158.4l-56.3,29.6l12.2-71l1.2-7.3l-5.3-5.1l-51.6-50.3l71.3-10.4l7.3-1.1l3.3-6.6L236,173.2
				 M250,113.2l-44.4,90.1l-99.4,14.4l71.9,70.1l-17,99l88.9-46.7V113.2L250,113.2z"/>
		</g>
	</g>
</g>
</svg>
